<svg xmlns="http://www.w3.org/2000/svg" viewBox="0 0 512 512" width="512" height="512">
  <defs>
    <linearGradient id="sLogoGrad" x1="140" y1="400" x2="380" y2="110" gradientUnits="userSpaceOnUse">
      <stop offset="0" stop-color="#5eead4"/>
      <stop offset="0.45" stop-color="#5b9df9"/>
      <stop offset="1" stop-color="#9b7cf6"/>
    </linearGradient>
    <radialGradient id="sLogoGlow" cx="0.5" cy="0.5" r="0.5">
      <stop offset="0" stop-color="#ffffff" stop-opacity="0.98"/>
      <stop offset="0.55" stop-color="#ffffff" stop-opacity="0.35"/>
      <stop offset="1" stop-color="#ffffff" stop-opacity="0"/>
    </radialGradient>
  </defs>
  <rect width="512" height="512" rx="120" fill="#ffffff"/>
  <path d="M368 150 C368 96 300 80 248 96 C196 112 168 156 200 196 C224 226 288 232 312 262 C344 302 316 360 256 376 C196 392 140 372 140 312"
        fill="none" stroke="url(#sLogoGrad)" stroke-width="64" stroke-linecap="round"/>
  <circle cx="252" cy="238" r="72" fill="url(#sLogoGlow)"/>
  <path d="M252 192 Q252 238 298 238 Q252 238 252 284 Q252 238 206 238 Q252 238 252 192 Z" fill="#ffffff"/>
</svg>
